<svg width="688" height="399" viewBox="0 0 688 399" fill="none" xmlns="http://www.w3.org/2000/svg">
<line x1="179" y1="40.5" y2="40.5" stroke="black"/>
<line x1="260.151" y1="14.4766" x2="178.151" y2="40.4766" stroke="black"/>
<path d="M266 5.78662L340.5 6.5" stroke="black"/>
<path d="M213.5 40L310.996 40.8928" stroke="black"/>
<line x1="226.646" y1="45.3536" x2="214.646" y2="33.3536" stroke="black"/>
<line x1="280.646" y1="12.3536" x2="268.646" y2="0.353554" stroke="black"/>
<path d="M274 6.00013L221.265 39.4241" stroke="black"/>
<path d="M281 312.484L206 312.484" stroke="black"/>
<path d="M221.018 39L221.018 312.5" stroke="black"/>
<line x1="221.335" y1="112.371" x2="179.335" y2="150.371" stroke="black"/>
<line x1="180" y1="150.5" x2="1" y2="150.5" stroke="black"/>
<line x1="226.646" y1="45.3536" x2="214.646" y2="33.3536" stroke="black"/>
<line x1="226.646" y1="318.354" x2="214.646" y2="306.354" stroke="black"/>
<path fill-rule="evenodd" clip-rule="evenodd" d="M505.11 399V268H506.11V399H505.11ZM280 383.262V310.5H281V383.262H505.11V384.262H281V399H280V384.262V383.262Z" fill="black"/>
<line x1="286.646" y1="389.354" x2="274.646" y2="377.354" stroke="black"/>
<line x1="511.646" y1="389.354" x2="499.646" y2="377.354" stroke="black"/>
<path d="M460.622 6H340.669C339.788 20.27 351.465 20 359.062 20C359.062 20 436.231 24 436.231 51V142H460.622V6Z" fill="#9E9E9E"/>
<path d="M460.622 278H340.669C340.268 271.503 342.47 268.02 345.705 266.153C349.575 263.92 354.923 264 359.062 264C359.062 264 402.508 261.748 424.203 249.218C431.421 245.048 436.231 239.741 436.231 233V142H460.622V278Z" fill="#9E9E9E"/>
<path d="M446.681 278H566.634C567.514 263.73 555.838 264 548.241 264C548.241 264 471.071 260 471.071 233V142H446.681V278Z" fill="#9E9E9E"/>
<path d="M446.681 6H566.634C567.034 12.4969 564.833 15.9799 561.598 17.8466C557.728 20.0801 552.379 20 548.241 20C548.241 20 504.794 22.252 483.1 34.7824C475.881 38.9518 471.071 44.2591 471.071 51V142H446.681V6Z" fill="#9E9E9E"/>
<path d="M280.047 313C279.646 306.503 281.848 303.02 285.083 301.153L345.701 266.155C342.468 268.023 340.268 271.505 340.669 278L280.047 313Z" fill="#9E9E9E"/>
<path d="M285.083 301.153C288.953 298.92 294.302 299 298.44 299L359.062 264C354.923 264 349.575 263.92 345.705 266.153L285.083 301.153Z" fill="#9E9E9E"/>
<path d="M400 313H280.047L340.669 278H460.622L400 313Z" fill="#9E9E9E"/>
<path d="M298.44 299C298.44 299 341.887 296.748 363.581 284.218L424.188 249.226C402.489 261.749 359.062 264 359.062 264L298.44 299Z" fill="#9E9E9E"/>
<path d="M363.581 284.218C370.799 280.048 375.61 274.741 375.61 268L436.231 233C436.231 239.741 431.421 245.048 424.203 249.218L363.581 284.218Z" fill="#9E9E9E"/>
<path d="M386.059 177V313L446.681 278V142L386.059 177Z" fill="#9E9E9E"/>
<path d="M375.61 268V177L436.231 142V233L375.61 268Z" fill="#9E9E9E"/>
<path d="M400 177V313L460.622 278V142L400 177Z" fill="#9E9E9E"/>
<path d="M280.047 41C279.167 55.27 290.843 55 298.44 55L359.062 20C351.465 20 339.788 20.27 340.669 6L280.047 41Z" fill="#9E9E9E"/>
<path d="M386.059 313H506.012L566.634 278H446.681L386.059 313Z" fill="#9E9E9E"/>
<path d="M410.449 268V177L471.071 142V233L410.449 268Z" fill="#767676"/>
<path d="M487.619 299C487.619 299 410.449 295 410.449 268L471.071 233C471.071 260 548.241 264 548.241 264L487.619 299Z" fill="#767676"/>
<path d="M375.61 177H400L460.622 142H436.231L375.61 177Z" fill="#9E9E9E"/>
<path d="M410.449 177H386.059L446.681 142H471.071L410.449 177Z" fill="#9E9E9E"/>
<path d="M298.44 55C298.44 55 375.61 59 375.61 86L436.231 51C436.231 24 359.062 20 359.062 20L298.44 55Z" fill="#9E9E9E"/>
<path d="M375.61 86V177L436.231 142V51L375.61 86Z" fill="#9E9E9E"/>
<path d="M400 41H280.047L340.669 6H460.622L400 41Z" fill="#9E9E9E"/>
<path d="M506.012 313C506.892 298.73 495.216 299 487.619 299L548.241 264C555.838 264 567.514 263.73 566.634 278L506.012 313Z" fill="#767676"/>
<path d="M386.059 177V41L446.681 6V142L386.059 177Z" fill="#9E9E9E"/>
<path d="M410.449 86V177L471.071 142V51L410.449 86Z" fill="#767676"/>
<path d="M400 177V41L460.622 6V142L400 177Z" fill="#767676"/>
<path d="M422.478 69.7825C415.259 73.9518 410.449 79.2591 410.449 86L471.071 51C471.071 44.2591 475.881 38.9518 483.1 34.7825L422.478 69.7825Z" fill="#767676"/>
<path d="M487.619 55C487.619 55 444.192 57.251 422.493 69.7738L483.1 34.7824C504.794 22.252 548.241 20 548.241 20L487.619 55Z" fill="#9E9E9E"/>
<path d="M386.059 41H506.012L566.634 6H446.681L386.059 41Z" fill="#9E9E9E"/>
<path d="M500.976 52.8467C497.106 55.0801 491.757 55 487.619 55L548.241 20C552.379 20 557.728 20.0801 561.598 17.8467L500.976 52.8467Z" fill="#9E9E9E"/>
<path d="M506.012 41C506.413 47.4945 504.212 50.9773 500.98 52.8446L561.598 17.8466C564.833 15.9799 567.034 12.4969 566.634 6L506.012 41Z" fill="#9E9E9E"/>
<path d="M400 41H280.047C279.167 55.27 290.843 55 298.44 55C298.44 55 375.61 59 375.61 86V177H400V41Z" fill="#828282"/>
<path d="M400 313H280.047C279.167 298.73 290.843 299 298.44 299C298.44 299 375.61 295 375.61 268V177H400V313Z" fill="#828282"/>
<path d="M386.059 313H506.012C506.892 298.73 495.216 299 487.619 299C487.619 299 410.449 295 410.449 268V177H386.059V313Z" fill="#828282"/>
<path d="M386.059 41H506.012C506.892 55.27 495.216 55 487.619 55C487.619 55 410.449 59 410.449 86V177H386.059V41Z" fill="#828282"/>
<line x1="494" y1="222.5" x2="675" y2="222.5" stroke="black"/>
<line x1="454.549" y1="302.783" x2="493.549" y2="221.783" stroke="black"/>
<path fill-rule="evenodd" clip-rule="evenodd" d="M455.074 293.703L455.074 313L454.074 313L454.074 293.703L455.074 293.703Z" fill="black"/>
<line x1="448.354" y1="306.646" x2="460.354" y2="318.646" stroke="black"/>
<line x1="448.354" y1="287.646" x2="460.354" y2="299.646" stroke="black"/>
<path d="M375 143.5L688 143.5" stroke="black"/>
<line x1="404.354" y1="137.646" x2="416.354" y2="149.646" stroke="black"/>
<line x1="369.354" y1="137.646" x2="381.354" y2="149.646" stroke="black"/>
</svg>
