<svg width="60" height="60" viewBox="0 0 60 60" fill="none" xmlns="http://www.w3.org/2000/svg">
<mask id="path-1-inside-1_387_411" fill="white">
<path fill-rule="evenodd" clip-rule="evenodd" d="M10 0C4.47715 0 0 4.47715 0 10V50C0 55.5229 4.47715 60 10 60H50C55.5229 60 60 55.5229 60 50V10C60 4.47715 55.5229 0 50 0H10ZM19 9C13.4772 9 9 13.4772 9 19V41C9 46.5228 13.4772 51 19 51H41C46.5228 51 51 46.5229 51 41V19C51 13.4772 46.5229 9 41 9H19Z"/>
</mask>
<path d="M1 10C1 5.02944 5.02944 1 10 1V-1C3.92487 -1 -1 3.92487 -1 10H1ZM1 50V10H-1V50H1ZM10 59C5.02944 59 1 54.9706 1 50H-1C-1 56.0751 3.92487 61 10 61V59ZM50 59H10V61H50V59ZM59 50C59 54.9706 54.9706 59 50 59V61C56.0751 61 61 56.0751 61 50H59ZM59 10V50H61V10H59ZM50 1C54.9706 1 59 5.02944 59 10H61C61 3.92487 56.0751 -1 50 -1V1ZM10 1H50V-1H10V1ZM10 19C10 14.0294 14.0294 10 19 10V8C12.9249 8 8 12.9249 8 19H10ZM10 41V19H8V41H10ZM19 50C14.0294 50 10 45.9706 10 41H8C8 47.0751 12.9249 52 19 52V50ZM41 50H19V52H41V50ZM50 41C50 45.9706 45.9706 50 41 50V52C47.0751 52 52 47.0751 52 41H50ZM50 19V41H52V19H50ZM41 10C45.9706 10 50 14.0294 50 19H52C52 12.9249 47.0751 8 41 8V10ZM19 10H41V8H19V10Z" fill="#888888" mask="url(#path-1-inside-1_387_411)"/>
</svg>
