<svg width="68" height="55" viewBox="0 0 68 55" fill="none" xmlns="http://www.w3.org/2000/svg">
<path d="M67.3294 2.16542L67.3295 54.5L0.5 54.4999V0.5H2.16535C3.83524 0.5 5.68794 1.18176 7.12093 2.29721C8.55615 3.41439 9.5 4.90729 9.5 6.49605V37.6086V37.654L9.50818 37.6987C9.79791 39.2812 10.7404 41.2024 12.0044 42.7308C13.2556 44.2438 14.925 45.4928 16.7106 45.5H16.7126L51.2874 45.5L51.2894 45.5C53.075 45.4928 54.7444 44.2438 55.9956 42.7308C57.2596 41.2024 58.2021 39.2812 58.4918 37.6987L58.5 37.654V37.6086V6.49605C58.5 4.89924 59.4097 3.406 60.7992 2.29292C62.1879 1.18058 63.9958 0.500059 65.6641 0.500059C66.5838 0.500059 67.3294 1.24567 67.3294 2.16542Z" stroke="#888888"/>
</svg>
