<svg width="60" height="60" viewBox="0 0 60 60" fill="none" xmlns="http://www.w3.org/2000/svg">
<mask id="path-1-inside-1_385_383" fill="white">
<path fill-rule="evenodd" clip-rule="evenodd" d="M9.44882 9.44882C9.44882 4.23038 5.21844 0 0 0V50.5512V60H9.44882L60 60C60 54.7816 55.7696 50.5512 50.5512 50.5512L9.44882 50.5512V9.44882Z"/>
</mask>
<path d="M0 0V-1H-1V0H0ZM0 60H-1V61H0V60ZM9.44882 60L9.44882 59H9.44882V60ZM60 60L60 61L61 61V60H60ZM50.5512 50.5512L50.5512 51.5512H50.5512V50.5512ZM9.44882 50.5512H8.44882V51.5512L9.44882 51.5512L9.44882 50.5512ZM0 1C4.66615 1 8.44882 4.78267 8.44882 9.44882H10.4488C10.4488 3.6781 5.77072 -1 0 -1V1ZM1 50.5512V0H-1V50.5512H1ZM1 60V50.5512H-1V60H1ZM9.44882 59H0V61H9.44882V59ZM60 59L9.44882 59L9.44882 61L60 61L60 59ZM50.5512 51.5512C55.2173 51.5512 59 55.3338 59 60H61C61 54.2293 56.3219 49.5512 50.5512 49.5512V51.5512ZM9.44882 51.5512L50.5512 51.5512L50.5512 49.5512L9.44882 49.5512L9.44882 51.5512ZM8.44882 9.44882V50.5512H10.4488V9.44882H8.44882Z" fill="#888888" mask="url(#path-1-inside-1_385_383)"/>
</svg>
