<svg width="532" height="252" viewBox="0 0 532 252" fill="none" xmlns="http://www.w3.org/2000/svg">
<line x1="179" y1="40.5" y2="40.5" stroke="black"/>
<line x1="260.151" y1="14.4766" x2="178.151" y2="40.4766" stroke="black"/>
<path d="M266 5.78662L365.5 5.78662" stroke="black"/>
<path d="M213.5 40L310.996 40.8928" stroke="black"/>
<line x1="226.646" y1="45.3536" x2="214.646" y2="33.3536" stroke="black"/>
<line x1="280.646" y1="12.3536" x2="268.646" y2="0.353554" stroke="black"/>
<path d="M274 6.00013L221.265 39.4241" stroke="black"/>
<path d="M295 245.484L206 245.484" stroke="black"/>
<path d="M221.019 25L221.018 245.5" stroke="black"/>
<line x1="221.335" y1="112.371" x2="179.335" y2="150.371" stroke="black"/>
<line x1="180" y1="150.5" x2="1" y2="150.5" stroke="black"/>
<line x1="226.646" y1="45.3536" x2="214.646" y2="33.3536" stroke="black"/>
<line x1="226.646" y1="251.354" x2="214.646" y2="239.354" stroke="black"/>
<path fill-rule="evenodd" clip-rule="evenodd" d="M355.622 5C350.164 5 345.047 6.45742 340.638 9.00432C331.662 14.1892 325.622 23.8892 325.622 35V181C325.622 197.569 339.053 211 355.622 211H501.622C507.08 211 512.197 209.543 516.606 206.996C525.582 201.811 531.622 192.111 531.622 181V35C531.622 18.4315 518.19 5 501.622 5H355.622ZM367.622 17C362.164 17 357.047 18.4574 352.638 21.0043C343.662 26.1892 337.622 35.8892 337.622 47V169C337.622 185.569 351.053 199 367.622 199H489.622C495.08 199 500.197 197.543 504.606 194.996C513.582 189.811 519.622 180.111 519.622 169V47C519.622 30.4315 506.19 17 489.622 17H367.622Z" fill="#9E9E9F"/>
<path d="M265 216C265 232.569 278.431 246 295 246L355.622 211C339.053 211 325.622 197.569 325.622 181L265 216Z" fill="#9E9E9F"/>
<path d="M277 204C277 220.569 290.431 234 307 234L367.622 199C351.053 199 337.622 185.569 337.622 169L277 204Z" fill="#9E9E9F"/>
<path d="M265 70V216L325.622 181V35L265 70Z" fill="#9E9E9F"/>
<path d="M277 82V204L337.622 169V47L277 82Z" fill="#9E9E9F"/>
<path d="M295 246H441L501.622 211H355.622L295 246Z" fill="#9E9E9F"/>
<path d="M307 234H429L489.622 199H367.622L307 234Z" fill="#9E9E9F"/>
<path d="M280.016 44.0044C271.04 49.1893 265 58.8893 265 70.0001L325.622 35.0001C325.622 23.8893 331.662 14.1893 340.638 9.00439L280.016 44.0044Z" fill="#9E9E9F"/>
<path d="M292.016 56.0044C283.04 61.1893 277 70.8893 277 82.0001L337.622 47.0001C337.622 35.8893 343.662 26.1893 352.638 21.0044L292.016 56.0044Z" fill="#9E9E9F"/>
<path d="M295 40C289.547 40 284.434 41.4548 280.028 43.9975L340.638 9.00432C345.047 6.45742 350.164 5 355.622 5L295 40Z" fill="#9E9E9F"/>
<path d="M307 52C301.547 52 296.434 53.4548 292.028 55.9975L352.638 21.0043C357.047 18.4574 362.164 17 367.622 17L307 52Z" fill="#9E9E9F"/>
<path d="M429 234C434.458 234 439.575 232.542 443.984 229.996L504.594 195.002C500.188 197.545 495.075 199 489.622 199L429 234Z" fill="#9E9E9F"/>
<path d="M441 246C446.458 246 451.575 244.542 455.984 241.996L516.594 207.002C512.188 209.545 507.075 211 501.622 211L441 246Z" fill="#9E9E9F"/>
<path d="M443.984 229.996C452.96 224.811 459 215.111 459 204L519.622 169C519.622 180.111 513.582 189.811 504.606 194.996L443.984 229.996Z" fill="#9E9E9F"/>
<path d="M455.984 241.996C464.96 236.811 471 227.111 471 216L531.622 181C531.622 192.111 525.582 201.811 516.606 206.996L455.984 241.996Z" fill="#9E9E9F"/>
<path d="M429 52H307L367.622 17H489.622L429 52Z" fill="#9E9E9F"/>
<path d="M441 40H295L355.622 5H501.622L441 40Z" fill="#9E9E9F"/>
<path d="M459 204V82L519.622 47V169L459 204Z" fill="#9E9E9F"/>
<path d="M471 216V70L531.622 35V181L471 216Z" fill="#9E9E9F"/>
<path d="M459 82C459 65.4315 445.569 52 429 52L489.622 17C506.19 17 519.622 30.4315 519.622 47L459 82Z" fill="#9E9E9F"/>
<path d="M471 70C471 53.4315 457.569 40 441 40L501.622 5C518.19 5 531.622 18.4315 531.622 35L471 70Z" fill="#9E9E9F"/>
<path fill-rule="evenodd" clip-rule="evenodd" d="M295 40C278.431 40 265 53.4314 265 70V216C265 232.568 278.431 246 295 246H441C457.569 246 471 232.568 471 216V70C471 53.4314 457.569 40 441 40H295ZM307 52C290.431 52 277 65.4314 277 82V204C277 220.568 290.431 234 307 234H429C445.569 234 459 220.568 459 204V82C459 65.4314 445.569 52 429 52H307Z" fill="#828282"/>
</svg>
