<svg width="45" height="47" viewBox="0 0 45 47" fill="none" xmlns="http://www.w3.org/2000/svg">
<rect y="2" width="45" height="45" rx="4" fill="#414141"/>
<path d="M24.7969 23.1875C26.237 23.1875 27.472 23.2467 28.502 23.3652C29.5319 23.4837 30.3978 23.6615 31.0996 23.8984C31.8105 24.1263 32.3757 24.4134 32.7949 24.7598C33.2142 25.1061 33.5378 25.5026 33.7656 25.9492C33.9935 26.3867 34.1393 26.8789 34.2031 27.4258C34.276 27.9727 34.3125 28.5651 34.3125 29.2031C34.3125 29.8411 34.2533 30.4427 34.1348 31.0078C34.0254 31.5638 33.8249 32.0742 33.5332 32.5391C33.2415 33.0039 32.8451 33.4186 32.3438 33.7832C31.8424 34.1478 31.2044 34.4577 30.4297 34.7129C29.6549 34.9681 28.7207 35.1595 27.627 35.2871C26.5423 35.4238 25.2708 35.4922 23.8125 35.4922H20.3125C19 35.4922 17.8516 35.4421 16.8672 35.3418C15.8828 35.2415 15.0352 35.0911 14.3242 34.8906C13.6133 34.681 13.0254 34.4212 12.5605 34.1113C12.0957 33.7923 11.722 33.4232 11.4395 33.0039C11.166 32.5755 10.9746 32.0924 10.8652 31.5547C10.7559 31.0078 10.7012 30.4062 10.7012 29.75H13.3262C13.3262 30.5703 13.4447 31.2129 13.6816 31.6777C13.9186 32.1426 14.3105 32.4935 14.8574 32.7305C15.4043 32.9583 16.1198 33.1042 17.0039 33.168C17.8971 33.2227 19 33.25 20.3125 33.25H23.8125C25.3438 33.25 26.6152 33.1771 27.627 33.0312C28.6387 32.8854 29.4453 32.653 30.0469 32.334C30.6484 32.015 31.0723 31.6003 31.3184 31.0898C31.5645 30.5703 31.6875 29.9414 31.6875 29.2031C31.6875 28.4648 31.6009 27.8496 31.4277 27.3574C31.2637 26.8652 30.931 26.4733 30.4297 26.1816C29.9375 25.89 29.2402 25.6849 28.3379 25.5664C27.4355 25.4388 26.2552 25.375 24.7969 25.375H21.1875C19.5833 25.375 18.207 25.3158 17.0586 25.1973C15.9193 25.0788 14.9622 24.9102 14.1875 24.6914C13.4128 24.4635 12.793 24.1855 12.3281 23.8574C11.8633 23.5202 11.5078 23.1374 11.2617 22.709C11.0247 22.2806 10.8698 21.8066 10.7969 21.2871C10.724 20.7585 10.6875 20.1888 10.6875 19.5781C10.6875 18.9401 10.7422 18.3477 10.8516 17.8008C10.9701 17.2539 11.1842 16.7617 11.4941 16.3242C11.804 15.8776 12.2279 15.4811 12.7656 15.1348C13.3034 14.7884 13.9915 14.5013 14.8301 14.2734C15.6777 14.0365 16.694 13.8587 17.8789 13.7402C19.0638 13.6217 20.4583 13.5625 22.0625 13.5625H24.6875C26 13.5625 27.1484 13.6126 28.1328 13.7129C29.1172 13.804 29.9648 13.9544 30.6758 14.1641C31.3867 14.3646 31.9746 14.6198 32.4395 14.9297C32.9134 15.2305 33.2871 15.5951 33.5605 16.0234C33.8431 16.4427 34.0391 16.9212 34.1484 17.459C34.2578 17.9967 34.3125 18.5938 34.3125 19.25H31.6875C31.6875 18.4297 31.569 17.7871 31.332 17.3223C31.0951 16.8574 30.7031 16.5111 30.1562 16.2832C29.6094 16.0462 28.8893 15.9004 27.9961 15.8457C27.1029 15.7819 26 15.75 24.6875 15.75H22.0625C20.3125 15.75 18.8724 15.8138 17.7422 15.9414C16.612 16.0599 15.7188 16.265 15.0625 16.5566C14.4062 16.8483 13.9505 17.2402 13.6953 17.7324C13.4401 18.2246 13.3125 18.8398 13.3125 19.5781C13.3125 20.0339 13.3444 20.4395 13.4082 20.7949C13.472 21.1504 13.5996 21.4648 13.791 21.7383C13.9915 22.0026 14.2695 22.2259 14.625 22.4082C14.9805 22.5905 15.4499 22.7409 16.0332 22.8594C16.6165 22.9779 17.3275 23.0645 18.166 23.1191C19.0137 23.1647 20.0208 23.1875 21.1875 23.1875H24.7969Z" fill="white"/>
</svg>
