<svg width="478" height="364" viewBox="0 0 478 364" fill="none" xmlns="http://www.w3.org/2000/svg">
<line x1="179" y1="42.5" y2="42.5" stroke="black"/>
<line x1="261.149" y1="16.4771" x2="178.149" y2="42.4771" stroke="black"/>
<line x1="213.646" y1="353.354" x2="201.646" y2="341.354" stroke="black"/>
<path fill-rule="evenodd" clip-rule="evenodd" d="M372.622 217C391.724 217 409.635 211.899 425.066 202.985C456.481 184.838 477.622 150.888 477.622 112C477.622 54.0101 430.612 7 372.622 7C353.52 7 335.609 12.101 320.177 21.0151C288.762 39.1622 267.622 73.1123 267.622 112C267.622 169.99 314.632 217 372.622 217ZM372.622 201C388.813 201 403.995 196.676 417.075 189.121C443.703 173.739 461.622 144.962 461.622 112C461.622 62.8467 421.775 23 372.622 23C356.43 23 341.249 27.3237 328.169 34.8795C301.541 50.2613 283.622 79.0381 283.622 112C283.622 161.153 323.468 201 372.622 201Z" fill="#9E9E9E"/>
<path d="M207 147C207 204.99 254.01 252 312 252L372.622 217C314.632 217 267.622 169.99 267.622 112L207 147Z" fill="#9E9E9E"/>
<path d="M223 147C223 196.153 262.847 236 312 236L372.622 201C323.468 201 283.622 161.153 283.622 112L223 147Z" fill="#767676"/>
<path d="M259.555 56.0151C228.14 74.1622 207 108.112 207 147L267.622 112C267.622 73.1123 288.762 39.1622 320.177 21.0151L259.555 56.0151Z" fill="#9E9E9E"/>
<path d="M267.547 69.8794C240.919 85.2612 223 114.038 223 147L283.622 112C283.622 79.038 301.541 50.2612 328.169 34.8794L267.547 69.8794Z" fill="#767676"/>
<path d="M312 252C331.102 252 349.013 246.899 364.445 237.985L425.025 203.009C409.603 211.908 391.707 217 372.622 217L312 252Z" fill="#9E9E9E"/>
<path d="M312 236C328.191 236 343.373 231.676 356.453 224.121L417.04 189.141C403.968 196.684 388.799 201 372.622 201L312 236Z" fill="#767676"/>
<path d="M312 58C295.823 58 280.654 62.3159 267.582 69.8592L328.169 34.8795C341.249 27.3237 356.43 23 372.622 23L312 58Z" fill="#9E9E9E"/>
<path d="M312 42C292.915 42 275.019 47.0918 259.597 55.9911L320.177 21.0151C335.609 12.101 353.52 7 372.622 7L312 42Z" fill="#9E9E9E"/>
<path d="M356.453 224.121C383.081 208.739 401 179.962 401 147L461.622 112C461.622 144.962 443.703 173.739 417.075 189.121L356.453 224.121Z" fill="#9E9E9E"/>
<path d="M364.445 237.985C395.86 219.838 417 185.888 417 147L477.622 112C477.622 150.888 456.481 184.838 425.066 202.985L364.445 237.985Z" fill="#9E9E9E"/>
<path d="M401 147C401 97.8467 361.153 58 312 58L372.622 23C421.775 23 461.622 62.8467 461.622 112L401 147Z" fill="#9E9E9E"/>
<path d="M417 147C417 89.0101 369.99 42 312 42L372.622 7C430.612 7 477.622 54.0101 477.622 112L417 147Z" fill="#9E9E9E"/>
<path d="M417 147C417 204.99 369.99 252 312 252C254.01 252 207 204.99 207 147C207 89.0101 254.01 42 312 42C369.99 42 417 89.0101 417 147Z" fill="#828282"/>
<path fill-rule="evenodd" clip-rule="evenodd" d="M207.151 347.588V147H208.151V347.588H416.006L416.006 147H417.006V364H416.006L416.006 348.588H208.151V364H207.151V348.588V347.588Z" fill="black"/>
<line x1="421.646" y1="353.354" x2="409.646" y2="341.354" stroke="black"/>
<line x1="416.5" y1="147" x2="416.5" y2="275" stroke="black"/>
<path d="M265 7L364.996 7.89282" stroke="black"/>
<path d="M211 42L310.996 42.8928" stroke="black"/>
<line x1="226.646" y1="47.3536" x2="214.646" y2="35.3536" stroke="black"/>
<line x1="282.646" y1="12.3536" x2="270.646" y2="0.353554" stroke="black"/>
<line x1="277.265" y1="6.424" x2="221.265" y2="41.424" stroke="black"/>
</svg>
