<svg width="555" height="385" viewBox="0 0 555 385" fill="none" xmlns="http://www.w3.org/2000/svg">
<path fill-rule="evenodd" clip-rule="evenodd" d="M293.333 0H261V211.667V254H303.333L515 254V221.667C515 216.144 510.523 211.667 505 211.667L303.333 211.667V10C303.333 4.47715 298.856 0 293.333 0Z" fill="#828282"/>
<path fill-rule="evenodd" clip-rule="evenodd" d="M261 369.262V254H262V369.262H513.984V254H514.984V385H513.984V370.262H262V385H261V370.262V369.262Z" fill="black"/>
<path fill-rule="evenodd" clip-rule="evenodd" d="M545.925 253.768L499 253.768L499 252.768L545.925 252.768L545.925 212.723L546.925 212.723L546.925 252.768L553 252.768L553 253.768L546.925 253.768L545.925 253.768ZM553 212.723L499 212.723L499 211.723L553 211.723L553 212.723Z" fill="black"/>
<path fill-rule="evenodd" clip-rule="evenodd" d="M220.518 252.984L261 252.984L261 253.984L205 253.984L205 252.984L219.518 252.984L219.518 0.999998L207.074 0.999998L207.074 -2.35718e-06L219.518 -1.81322e-06L220.518 -1.7695e-06L261 0L261 1L220.518 0.999998L220.518 252.984Z" fill="black"/>
<path d="M546.5 233L513 179" stroke="black"/>
<path d="M514 179.5L322.5 179.5" stroke="black"/>
<line x1="220.335" y1="152.371" x2="178.335" y2="190.371" stroke="black"/>
<line x1="179" y1="190.5" y2="190.5" stroke="black"/>
</svg>
