<svg width="630" height="426" viewBox="0 0 630 426" fill="none" xmlns="http://www.w3.org/2000/svg">
<path d="M331.622 6H321.622V260L575.622 260V250C575.622 233.431 562.19 220 545.622 220L361.622 220V36C361.622 19.4315 348.19 6 331.622 6Z" fill="#9E9E9E"/>
<path d="M261 41V295L321.622 260V6L261 41Z" fill="#9E9E9E"/>
<path d="M301 255V71L361.622 36V220L301 255Z" fill="#9E9E9E"/>
<path d="M261 295L515 295L575.622 260L321.622 260L261 295Z" fill="#9E9E9E"/>
<path d="M271 41H261L321.622 6H331.622L271 41Z" fill="#9E9E9E"/>
<path d="M485 255L301 255L361.622 220L545.622 220L485 255Z" fill="#9E9E9E"/>
<path d="M301 71C301 54.4315 287.569 41 271 41L331.622 6C348.19 6 361.622 19.4315 361.622 36L301 71Z" fill="#9E9E9E"/>
<path d="M515 285C515 268.431 501.569 255 485 255L545.622 220C562.19 220 575.622 233.431 575.622 250L515 285Z" fill="#9E9E9E"/>
<path d="M515 295V285L575.622 250V260L515 295Z" fill="#9E9E9E"/>
<path fill-rule="evenodd" clip-rule="evenodd" d="M271 41H261V255V295H301L515 295V285C515 268.431 501.569 255 485 255L301 255V71C301 54.4315 287.569 41 271 41Z" fill="#828282"/>
<path fill-rule="evenodd" clip-rule="evenodd" d="M220.518 293.984L261 293.984L261 294.984L205 294.984L205 293.984L219.518 293.984L219.518 42L207.074 42L207.074 41L219.518 41L220.518 41L261 41L261 42L220.518 42L220.518 293.984Z" fill="black"/>
<line x1="220.335" y1="114.371" x2="178.335" y2="152.371" stroke="black"/>
<line x1="179" y1="152.5" y2="152.5" stroke="black"/>
<path fill-rule="evenodd" clip-rule="evenodd" d="M261 410.262V295H262V410.262H513.996V411.262H262V426H261V411.262V410.262ZM513.996 426V295H514.996V426H513.996Z" fill="black"/>
<line x1="179" y1="41.5" y2="41.5" stroke="black"/>
<path d="M392.622 219.983C392.284 219.994 391.945 220 391.605 220C375.313 220 361.622 206.792 361.622 190.5C361.622 189.997 361.635 189.497 361.661 189H361.622V190.5V220H391.605H392.622V219.983Z" fill="#9E9E9E"/>
<path d="M301 225.5V255L361.622 220V190.5L301 225.5Z" fill="#9E9E9E"/>
<path d="M301 255H330.983L391.605 220H361.622L301 255Z" fill="#9E9E9E"/>
<path d="M301 224V225.5L361.622 190.5V189L301 224Z" fill="#9E9E9E"/>
<path d="M301.039 224C301.013 224.497 301 224.997 301 225.5L361.622 190.5C361.622 189.997 361.635 189.497 361.661 189L301.039 224Z" fill="#9E9E9E"/>
<path d="M301.039 224H301L361.622 189H361.661L301.039 224Z" fill="#9E9E9E"/>
<path d="M301 225.5C301 241.792 314.691 255 330.983 255L391.605 220C375.313 220 361.622 206.792 361.622 190.5L301 225.5Z" fill="#9E9E9E"/>
<path d="M330.983 255H332L392.622 220H391.605L330.983 255Z" fill="#9E9E9E"/>
<path d="M330.983 255C331.324 255 331.663 254.994 332 254.983L392.622 219.983C392.284 219.994 391.945 220 391.605 220L330.983 255Z" fill="#9E9E9E"/>
<path d="M332 255V254.983L392.622 219.983V220L332 255Z" fill="#9E9E9E"/>
<path fill-rule="evenodd" clip-rule="evenodd" d="M332 254.983C331.663 254.994 331.324 255 330.983 255C314.691 255 301 241.792 301 225.5C301 224.997 301.013 224.497 301.039 224H301V225.5V255H330.983H332V254.983Z" fill="#828282"/>
<path fill-rule="evenodd" clip-rule="evenodd" d="M622.425 221L548 221L548 220L628.5 220L628.5 221L623.425 221L623.425 258.768L629.5 258.768L629.5 259.768L623.425 259.768L622.425 259.768L575.5 259.768L575.5 258.768L622.425 258.768L622.425 221Z" fill="black"/>
<path d="M587 152L408 152" stroke="black"/>
<line x1="225.646" y1="47.3536" x2="213.646" y2="35.3536" stroke="black"/>
<line x1="281.646" y1="12.3536" x2="269.646" y2="0.353554" stroke="black"/>
<line x1="225.646" y1="300.354" x2="213.646" y2="288.354" stroke="black"/>
<line x1="267.646" y1="416.354" x2="255.646" y2="404.354" stroke="black"/>
<line x1="520.646" y1="417.354" x2="508.646" y2="405.354" stroke="black"/>
<line x1="628.646" y1="265.354" x2="616.646" y2="253.354" stroke="black"/>
<line x1="628.646" y1="226.354" x2="616.646" y2="214.354" stroke="black"/>
<path d="M265 6L321 6.5" stroke="black"/>
<line x1="276.265" y1="6.424" x2="220.265" y2="41.424" stroke="black"/>
<line x1="261.149" y1="15.4771" x2="178.149" y2="41.4771" stroke="black"/>
<line x1="587.465" y1="151.817" x2="622.465" y2="240.817" stroke="black"/>
</svg>
