<svg width="505" height="494" viewBox="0 0 505 494" fill="none" xmlns="http://www.w3.org/2000/svg">
<path fill-rule="evenodd" clip-rule="evenodd" d="M226 391.457L274 391.207L274.005 392.207L226.005 392.457L191.071 392.638L186.003 397.707L185.295 397L189.65 392.646L178.005 392.706L178 391.706L190.655 391.641L190.74 391.555L190.74 64.9697L186.003 69.7071L185.296 69L190.588 63.7072L178.003 63.7072L178.003 62.7072L190.74 62.7072L191.588 62.7072L197.296 57L198.003 57.7071L193.003 62.7072L274.003 62.7072L274.003 63.7072L192.003 63.7072L191.74 63.9697L191.74 390.555L197.295 385L198.003 385.707L192.077 391.633L226 391.457Z" fill="black"/>
<path fill-rule="evenodd" clip-rule="evenodd" d="M272.666 11.3343L272.666 51.9999L271.666 51.9999L271.666 12.3343L266 18.0001L265.293 17.293L271.666 10.9201L271.666 -6.83843e-05L272.666 -6.82969e-05L272.666 9.92009L277.293 5.29295L278 6.00006L273.482 10.5184L436 10.5184L436 0.499999L437 0.499999L437 9.58584L442.293 4.29271L443 4.99982L437 11.0001L437 33.5L436 33.5L436 12.0001L431 16.9998L430.293 16.2927L435.067 11.5184L272.666 11.5184L272.666 11.3343Z" fill="black"/>
<path fill-rule="evenodd" clip-rule="evenodd" d="M376.335 478.118V381H377.335V477.082L383 471.214L383.695 471.933L377.335 478.521V494H376.335V479.556L371.695 484.362L371 483.642L375.519 478.963H213V491.852H212V479.903L206.695 485.398L206 484.678L212 478.464V387.5H213V477.428L218 472.25L218.695 472.969L213.873 477.963H376.334V478.118L376.335 478.118Z" fill="black"/>
<line x1="180" y1="11.5" x2="1" y2="11.5" stroke="black"/>
<line x1="197.646" y1="69.3536" x2="185.646" y2="57.3536" stroke="black"/>
<path d="M253.646 33.3535L241.646 21.3535" stroke="black"/>
<path d="M237 28L293 28.5" stroke="black"/>
<line x1="248.265" y1="28.424" x2="192.265" y2="63.424" stroke="black"/>
<path d="M213.5 50L179 11" stroke="black"/>
<line y1="-0.5" x2="181" y2="-0.5" transform="matrix(-1 8.64568e-08 8.64568e-08 1 476 263)" stroke="black"/>
<path d="M451 346L476.45 261.783" stroke="black"/>
<path d="M451.426 357L451.426 332" stroke="black"/>
<line y1="-0.5" x2="16.9706" y2="-0.5" transform="matrix(-0.707107 0.707107 0.707107 0.707107 458 351)" stroke="black"/>
<line y1="-0.5" x2="16.9706" y2="-0.5" transform="matrix(-0.707107 0.707107 0.707107 0.707107 458 327)" stroke="black"/>
<line x1="408" y1="332.5" x2="462" y2="332.5" stroke="black"/>
<line x1="408" y1="356.5" x2="462" y2="356.5" stroke="black"/>
<path d="M211.5 366.516L211.5 392.5L272.122 357.5L272.122 331.516L211.5 366.516Z" fill="#9D9E9E"/>
<path d="M211.5 392.5H231L291.622 357.5H272.122L211.5 392.5Z" fill="#9D9E9E"/>
<path d="M231 346.378V366.516L291.622 331.516V311.378L231 346.378Z" fill="#9D9E9E"/>
<path d="M231 366.516H253.174L313.796 331.516H291.622L231 366.516Z" fill="#9D9E9E"/>
<path d="M231.047 346.226C231.001 346.252 231 346.3 231 346.378L291.622 311.378C291.622 311.3 291.622 311.252 291.669 311.226L231.047 346.226Z" fill="#9D9E9E"/>
<path d="M231 346.378C231.038 355.74 244.274 364.886 253.174 366.516L313.796 331.516C304.896 329.886 291.66 320.74 291.622 311.378L231 346.378Z" fill="#9D9E9E"/>
<path d="M211.5 392.5L365.315 392.5C368.387 392.5 371.405 391.691 374.065 390.155C389.571 381.203 383.219 357.5 365.315 357.5L272.122 357.5L211.5 392.5Z" fill="#9D9E9E"/>
<path d="M357.012 366.516H211.5L272.122 331.516H417.634L357.012 366.516Z" fill="#9D9E9E"/>
<path d="M211.5 62.5L211.5 392.5L272.122 357.5L272.122 27.5L211.5 62.5Z" fill="#9D9E9E"/>
<path d="M231 392.5L231 88.4844L291.622 53.4844L291.622 357.5L231 392.5Z" fill="#9D9E9E"/>
<path d="M427.684 359.199L372.946 390.801C372.14 391.267 372.442 392.099 373.249 391.633L433.867 356.635C431.941 357.746 429.61 358.086 427.684 359.199Z" fill="#9D9E9E"/>
<path d="M357.012 366.516C367.775 366.516 376.5 375.241 376.5 386.004L437.122 351.004C437.122 340.241 428.397 331.516 417.634 331.516L357.012 366.516Z" fill="#9D9E9E"/>
<path d="M373.249 391.633C375.192 390.51 376.5 388.41 376.5 386.004L437.122 351.004C437.122 353.41 435.814 355.51 433.87 356.633L373.249 391.633Z" fill="#9D9E9E"/>
<path d="M231 88.4844V108.027L291.622 73.027V53.4844L231 88.4844Z" fill="#9D9E9E"/>
<path d="M237.484 108.622H237.495L298.117 73.6221H298.106L237.484 108.622Z" fill="#9D9E9E"/>
<path d="M237.484 108.027V108.622L298.106 73.622V73.0269L237.484 108.027Z" fill="#9D9E9E"/>
<path d="M237.484 108.027C237.485 108.226 237.489 108.424 237.495 108.622L298.117 73.622C298.111 73.4244 298.107 73.226 298.106 73.0269L237.484 108.027Z" fill="#9D9E9E"/>
<path d="M242.305 92.751C236.036 96.3722 231.02 101.939 231 108.027L291.622 73.0272C291.642 66.939 296.658 61.3722 302.927 57.751L242.305 92.751Z" fill="#9D9E9E"/>
<path d="M257.622 88.4844H231L291.622 53.4844L318.244 53.4844L257.622 88.4844Z" fill="#9D9E9E"/>
<path d="M256.648 88.4844C252.182 88.4844 246.915 90.0908 242.319 92.7429L302.927 57.7507C307.526 55.094 312.8 53.4844 317.269 53.4844L256.648 88.4844Z" fill="#9D9E9E"/>
<path d="M257.622 88.5096C257.299 88.4929 256.975 88.4844 256.648 88.4844L317.269 53.4844C317.596 53.4844 317.921 53.4929 318.244 53.5096L257.622 88.5096Z" fill="#9D9E9E"/>
<path d="M257.622 88.5096V88.4844L318.244 53.4844V53.5096L257.622 88.5096Z" fill="#9D9E9E"/>
<path d="M231 88.4844L357.012 88.4844L417.634 53.4844L291.622 53.4844L231 88.4844Z" fill="#9D9E9E"/>
<path d="M376.5 62.5L211.5 62.5L272.122 27.5L437.122 27.5L376.5 62.5Z" fill="#9D9E9E"/>
<path d="M357.012 88.484C360.557 88.484 363.882 87.5373 366.746 85.8828L427.36 50.8873C424.498 52.539 421.176 53.484 417.634 53.484L357.012 88.484Z" fill="#9D9E9E"/>
<path d="M366.746 85.8831C372.577 82.5149 376.5 76.2137 376.5 68.9961L437.122 33.9961C437.122 41.2137 433.198 47.5149 427.368 50.8831L366.746 85.8831Z" fill="#9D9E9E"/>
<path d="M376.5 68.9961V62.5L437.122 27.5V33.9961L376.5 68.9961Z" fill="#9D9E9E"/>
<path d="M376.5 68.9961L376.5 62.5L211.5 62.5L211.5 392.5L231 392.5L231 88.4842L357.012 88.4843C367.775 88.4843 376.5 79.7591 376.5 68.9961Z" fill="#828282"/>
<path d="M237.495 108.622C237.489 108.424 237.485 108.226 237.484 108.027L237.484 108.622L237.495 108.622Z" fill="#828282"/>
<path d="M231 108.027L231 88.4842L257.622 88.4842L257.622 88.5095C257.299 88.4927 256.975 88.4843 256.648 88.4843C246.086 88.4843 231.035 97.472 231 108.027Z" fill="#828282"/>
<path d="M357.012 366.516C367.775 366.516 376.5 375.241 376.5 386.004V386.004C376.5 389.592 373.592 392.5 370.004 392.5L211.5 392.5L211.5 366.516L357.012 366.516Z" fill="#828282"/>
<path d="M253.174 366.516C244.274 364.886 231.038 355.74 231 346.378L231 366.516L253.174 366.516Z" fill="#828282"/>
<path d="M231 346.378C231.002 345.972 231 346.378 237.527 346.378L237.484 346.378L231 346.378Z" fill="#828282"/>
<line x1="191.366" y1="161.34" x2="178.366" y2="175.34" stroke="black"/>
<line x1="179" y1="175.5" y2="175.5" stroke="black"/>
<path d="M485 175.924L199.033 175.924M237 182L225 170M217.5 182L205.5 170" stroke="black"/>
</svg>
