<svg width="623" height="303" viewBox="0 0 623 303" fill="none" xmlns="http://www.w3.org/2000/svg">
<path fill-rule="evenodd" clip-rule="evenodd" d="M178.074 41L232 41L232 42L191.518 42L191.518 205.334L190.518 205.334L190.518 42L178.074 42L178.074 41ZM176 205.334L232 205.334L232 206.334L176 206.334L176 205.334Z" fill="black"/>
<line x1="191.366" y1="101.34" x2="178.366" y2="115.34" stroke="black"/>
<line x1="179" y1="115.5" y2="115.5" stroke="black"/>
<line x1="179" y1="11.5" y2="11.5" stroke="black"/>
<path fill-rule="evenodd" clip-rule="evenodd" d="M560.75 254.003L560.5 206.003L561.5 205.997L561.75 253.997L561.999 301.997L560.999 302.003L560.933 289.262H233L233 302H232L232 289.262V288.262V206L233 206L233 288.262H560.928L560.75 254.003Z" fill="black"/>
<line x1="196.646" y1="47.3533" x2="184.646" y2="35.3533" stroke="black"/>
<line x1="252.646" y1="12.3536" x2="240.646" y2="0.353554" stroke="black"/>
<line x1="238.646" y1="294.353" x2="226.646" y2="282.353" stroke="black"/>
<line x1="566.646" y1="294.354" x2="554.646" y2="282.354" stroke="black"/>
<path d="M236 6L292 6.5" stroke="black"/>
<line x1="247.265" y1="6.424" x2="191.265" y2="41.424" stroke="black"/>
<line x1="201.646" y1="35.3538" x2="177.646" y2="11.3538" stroke="black"/>
<line x1="335" y1="115.5" x2="516" y2="115.5" stroke="black"/>
<path d="M299.118 5.99976H292.622V171L622.622 171V145.016L318.606 145.016V25.4879C318.606 14.7249 309.881 5.99976 299.118 5.99976Z" fill="#767676"/>
<path d="M338.744 145.005C338.546 145.011 338.348 145.015 338.149 145.016H338.744V145.005Z" fill="#767676"/>
<path d="M338.018 145.016L318.606 145.016V124.878H318.631C318.614 125.201 318.606 125.525 318.606 125.852C318.606 136.414 327.463 144.98 338.018 145.016Z" fill="#767676"/>
<path d="M596.637 25.488C596.637 18.2675 600.564 11.9642 606.399 8.59705C609.261 6.94505 612.583 5.99983 616.126 5.99983C619.713 5.99983 622.622 8.90821 622.622 12.4959L622.622 171L596.637 171V25.488Z" fill="#767676"/>
<path d="M596.637 129.326C595.609 134.94 592.135 139.699 587.359 142.458C584.564 144.072 581.324 145.002 577.867 145.016H596.637V129.326Z" fill="#767676"/>
<path d="M577.709 145.016C577.303 145.014 576.9 145 576.5 144.973V145.016H577.709Z" fill="#767676"/>
<path d="M257.984 159.878V180.016L318.606 145.016V124.878L257.984 159.878Z" fill="#9E9E9E"/>
<path d="M232 40.9998V206L292.622 171V5.99976L232 40.9998Z" fill="#9E9E9E"/>
<path d="M257.984 180.016L277.396 180.016L338.018 145.016L318.606 145.016L257.984 180.016Z" fill="#9E9E9E"/>
<path d="M258.009 159.878C257.993 160.2 257.984 160.525 257.984 160.852L318.606 125.852C318.606 125.525 318.614 125.2 318.631 124.878L258.009 159.878Z" fill="#9E9E9E"/>
<path d="M258.009 159.878H257.984L318.606 124.878H318.631L258.009 159.878Z" fill="#9E9E9E"/>
<path d="M257.984 160.852C257.984 171.414 266.841 179.98 277.396 180.016L338.018 145.016C327.463 144.98 318.606 136.414 318.606 125.852L257.984 160.852Z" fill="#9E9E9E"/>
<path d="M277.527 180.016H278.122L338.744 145.016H338.149L277.527 180.016Z" fill="#9E9E9E"/>
<path d="M277.527 180.016C277.726 180.015 277.924 180.011 278.122 180.005L338.744 145.005C338.546 145.011 338.348 145.015 338.149 145.016L277.527 180.016Z" fill="#9E9E9E"/>
<path d="M278.122 180.016V180.005L338.744 145.005V145.016L278.122 180.016Z" fill="#9E9E9E"/>
<path d="M257.984 180.016V60.488L318.606 25.488V145.016L257.984 180.016Z" fill="#9E9E9E"/>
<path d="M238.496 40.9998H232L292.622 5.99976H299.118L238.496 40.9998Z" fill="#9E9E9E"/>
<path d="M257.984 60.4879C257.984 49.7249 249.259 40.9998 238.496 40.9998L299.118 5.99976C309.881 5.99976 318.606 14.7249 318.606 25.4879L257.984 60.4879Z" fill="#9E9E9E"/>
<path d="M232 206L562 206L622.622 171L292.622 171L232 206Z" fill="#9E9E9E"/>
<path d="M562 180.016L257.984 180.016L318.606 145.016L622.622 145.016L562 180.016Z" fill="#9E9E9E"/>
<path d="M515.878 179.973V180.016L576.5 145.016V144.973L515.878 179.973Z" fill="#9E9E9E"/>
<path d="M515.878 180.016H517.087L577.709 145.016H576.5L515.878 180.016Z" fill="#9E9E9E"/>
<path d="M515.878 179.973C516.278 180 516.682 180.014 517.087 180.016L577.709 145.016C577.303 145.014 576.9 145 576.5 144.973L515.878 179.973Z" fill="#9E9E9E"/>
<path d="M517.245 180.016C520.702 180.002 523.943 179.073 526.738 177.458L587.352 142.462C584.559 144.074 581.321 145.002 577.867 145.016L517.245 180.016Z" fill="#9E9E9E"/>
<path d="M517.245 180.016H536.016L596.637 145.016H577.867L517.245 180.016Z" fill="#9E9E9E"/>
<path d="M536.016 206L562 206L622.622 171L596.637 171L536.016 206Z" fill="#9E9E9E"/>
<path d="M526.738 177.458C531.513 174.699 534.988 169.94 536.016 164.326L596.637 129.326C595.61 134.94 592.135 139.699 587.359 142.458L526.738 177.458Z" fill="#9E9E9E"/>
<path d="M536.016 180.015V164.326L596.637 129.326V145.015L536.016 180.015Z" fill="#9E9E9E"/>
<path d="M562 206V180.016L622.622 145.016V171L562 206Z" fill="#9E9E9E"/>
<path d="M536.016 60.488V206L596.637 171V25.488L536.016 60.488Z" fill="#767676"/>
<path d="M562 206L562 59.0429C562 51.8975 565.812 45.295 572 41.7223L592.622 29.8163C605.955 22.1183 622.622 31.7409 622.622 47.1369L622.622 171L562 206Z" fill="#767676"/>
<path d="M536.016 60.4881C536.016 53.2676 539.942 46.9643 545.777 43.5972L606.393 8.60073C600.561 11.9688 596.637 18.2702 596.637 25.4881L536.016 60.4881Z" fill="#767676"/>
<path d="M545.777 43.597C548.64 41.945 551.961 40.9998 555.504 40.9998L616.126 5.99976C612.583 5.99976 609.261 6.94498 606.399 8.59698L545.777 43.597Z" fill="#767676"/>
<path d="M613.784 17.598L570.837 42.3936C566.91 44.6613 560.039 40.9998 555.504 40.9998L616.126 5.99976C622.44 5.99976 619.253 14.4408 613.784 17.598Z" fill="#767676"/>
<path d="M238.496 40.9998H232V206L562 206V186.5L257.984 186.5V60.4879C257.984 49.7249 249.259 40.9998 238.496 40.9998Z" fill="#828282"/>
<path d="M278.122 180.005C277.924 180.011 277.726 180.015 277.527 180.016H278.122V180.005Z" fill="#828282"/>
<path d="M277.527 186.5H257.984V159.878H258.009C257.993 160.201 257.984 160.525 257.984 160.852C257.984 171.414 266.972 186.465 277.527 186.5Z" fill="#828282"/>
<path d="M536.016 60.488C536.016 49.725 544.741 40.9998 555.504 40.9998V40.9998C559.092 40.9998 562 43.9082 562 47.4959L562 206L536.016 206V60.488Z" fill="#828282"/>
<path d="M536.016 164.326C534.386 173.226 525.24 186.462 515.878 186.5H536.016V164.326Z" fill="#828282"/>
<path d="M515.878 186.5C515.472 186.498 515.878 186.5 515.878 179.973V180.016V186.5Z" fill="#828282"/>
<line x1="295.549" y1="195.783" x2="334.549" y2="114.783" stroke="black"/>
<path fill-rule="evenodd" clip-rule="evenodd" d="M296.074 186.703L296.074 206L295.074 206L295.074 186.703L296.074 186.703Z" fill="black"/>
<line x1="536.5" y1="59" x2="536.5" y2="4" stroke="black"/>
<line x1="561.5" y1="46" x2="561.5" y2="4" stroke="black"/>
<path d="M569.997 13.4995L379.997 12.4724M568 19.5L556 7.5M543 19.5L531 7.5" stroke="black"/>
<line x1="289.354" y1="199.646" x2="301.354" y2="211.646" stroke="black"/>
<line x1="289.354" y1="180.646" x2="301.354" y2="192.646" stroke="black"/>
<line x1="197.646" y1="212.354" x2="185.646" y2="200.354" stroke="black"/>
<path d="M381 12.4999L333.775 12.5" stroke="black"/>
</svg>
