<svg width="60" height="60" viewBox="0 0 60 60" fill="none" xmlns="http://www.w3.org/2000/svg">
<mask id="path-1-inside-1_386_387" fill="white">
<path fill-rule="evenodd" clip-rule="evenodd" d="M30 60C46.5685 60 60 46.5685 60 30C60 13.4315 46.5685 0 30 0C13.4315 0 0 13.4315 0 30C0 46.5685 13.4315 60 30 60ZM30 50C41.0457 50 50 41.0457 50 30C50 18.9543 41.0457 10 30 10C18.9543 10 10 18.9543 10 30C10 41.0457 18.9543 50 30 50Z"/>
</mask>
<path d="M59 30C59 46.0163 46.0163 59 30 59V61C47.1208 61 61 47.1208 61 30H59ZM30 1C46.0163 1 59 13.9837 59 30H61C61 12.8792 47.1208 -1 30 -1V1ZM1 30C1 13.9837 13.9837 1 30 1V-1C12.8792 -1 -1 12.8792 -1 30H1ZM30 59C13.9837 59 1 46.0163 1 30H-1C-1 47.1208 12.8792 61 30 61V59ZM49 30C49 40.4934 40.4934 49 30 49V51C41.598 51 51 41.598 51 30H49ZM30 11C40.4934 11 49 19.5066 49 30H51C51 18.402 41.598 9 30 9V11ZM11 30C11 19.5066 19.5066 11 30 11V9C18.402 9 9 18.402 9 30H11ZM30 49C19.5066 49 11 40.4934 11 30H9C9 41.598 18.402 51 30 51V49Z"  mask="url(#path-1-inside-1_386_387)"/>
</svg>
