<svg width="60" height="60" viewBox="0 0 60 60" fill="none" stroke="red" xmlns="http://www.w3.org/2000/svg">
<mask id="path-1-inside-1_387_390" fill="white">
<path d="M60 30C60 46.5685 46.5685 60 30 60C13.4315 60 0 46.5685 0 30C0 13.4315 13.4315 0 30 0C46.5685 0 60 13.4315 60 30Z"/>
</mask>
<path d="M59 30C59 46.0163 46.0163 59 30 59V61C47.1208 61 61 47.1208 61 30H59ZM30 59C13.9837 59 1 46.0163 1 30H-1C-1 47.1208 12.8792 61 30 61V59ZM1 30C1 13.9837 13.9837 1 30 1V-1C12.8792 -1 -1 12.8792 -1 30H1ZM30 1C46.0163 1 59 13.9837 59 30H61C61 12.8792 47.1208 -1 30 -1V1Z"  mask="url(#path-1-inside-1_387_390)"/>
</svg>
