<svg width="518" height="224" viewBox="0 0 518 224" fill="none" xmlns="http://www.w3.org/2000/svg">
<path d="M263.622 48.0001C263.622 47.2591 264.025 46.6122 264.624 46.2667C264.917 46.0971 265.258 46.0001 265.622 46.0001H515.622C516.726 46.0001 517.622 46.8956 517.622 48.0001V57.0001C517.622 57.7408 517.219 58.3875 516.621 58.7332C516.327 58.903 515.986 59.0001 515.622 59.0001H265.622C264.517 59.0001 263.622 58.1047 263.622 57.0001V48.0001Z" fill="#9E9E9F"/>
<path d="M203 92.0001C203 93.1047 203.895 94.0001 205 94.0001L265.622 59.0001C264.517 59.0001 263.622 58.1047 263.622 57.0001L203 92.0001Z" fill="#9E9E9F"/>
<path d="M203 83.0001V92.0001L263.622 57.0001V48.0001L203 83.0001Z" fill="#9E9E9F"/>
<path d="M203 83.0002C203 82.2592 203.403 81.6123 204.002 81.2667L264.623 46.2671C264.024 46.6127 263.622 47.2594 263.622 48.0002L203 83.0002Z" fill="#9E9E9F"/>
<path d="M204.002 81.2667C204.296 81.0971 204.636 81.0001 205 81.0001L265.622 46.0001C265.258 46.0001 264.917 46.0971 264.624 46.2667L204.002 81.2667Z" fill="#9E9E9F"/>
<path d="M205 94.0001H455L515.622 59.0001H265.622L205 94.0001Z" fill="#9E9E9F"/>
<path d="M455 81.0001H205L265.622 46.0001H515.622L455 81.0001Z" fill="#9E9E9F"/>
<path d="M455 94.0001C455.364 94.0001 455.705 93.9029 455.999 93.7332L516.62 58.7336C516.326 58.9031 515.985 59.0001 515.622 59.0001L455 94.0001Z" fill="#9E9E9F"/>
<path d="M455.999 93.7332C456.597 93.3875 457 92.7408 457 92.0001L517.622 57.0001C517.622 57.7408 517.219 58.3875 516.621 58.7332L455.999 93.7332Z" fill="#828282"/>
<path d="M457 92.0001V83.0001L517.622 48.0001V57.0001L457 92.0001Z" fill="#828282"/>
<path d="M457 83.0001C457 81.8956 456.105 81.0001 455 81.0001L515.622 46.0001C516.726 46.0001 517.622 46.8956 517.622 48.0001L457 83.0001Z" fill="#828282"/>
<rect x="203" y="81" width="254" height="13" rx="2" fill="#828282"/>
<line x1="179" y1="1.5" y2="1.5" stroke="black"/>
<line x1="169.646" y1="87.3536" x2="157.646" y2="75.3536" stroke="black"/>
<line x1="225.646" y1="52.3537" x2="213.646" y2="40.3537" stroke="black"/>
<path d="M209 46.0001L265 46.5001" stroke="black"/>
<line x1="220.265" y1="46.4241" x2="164.265" y2="81.4241" stroke="black"/>
<line x1="204.549" y1="55.2169" x2="178.549" y2="1.21691" stroke="black"/>
<path d="M153 81L204 81.5" stroke="black"/>
<path fill-rule="evenodd" clip-rule="evenodd" d="M504.418 82.0838L455.5 82.0838L455.5 81.0838L504.495 81.0838L504.501 81.0063L505.499 81.0833L505.498 81.0838L509.5 81.0838L509.5 82.0838L505.421 82.0838L504.598 92.7453L510.5 92.7453L510.5 93.7453L504.521 93.7453L504.499 94.0353L503.501 93.9583L503.518 93.7453L456.5 93.7453L456.5 92.7453L503.595 92.7453L504.418 82.0838Z" fill="black"/>
<path d="M449 1L270 1.00002" stroke="black"/>
<line x1="509.646" y1="99.3536" x2="497.646" y2="87.3536" stroke="black"/>
<path d="M509.646 86.3535L497.646 74.3535" stroke="black"/>
<line x1="449.423" y1="1.73282" x2="504.423" y2="88.7328" stroke="black"/>
<path fill-rule="evenodd" clip-rule="evenodd" d="M203 208.262V93H204V208.262H455.996V209.262H204V224H203V209.262V208.262ZM455.996 224V93H456.996V224H455.996Z" fill="black"/>
<line x1="209.646" y1="214.354" x2="197.646" y2="202.354" stroke="black"/>
<line x1="462.646" y1="215.354" x2="450.646" y2="203.354" stroke="black"/>
</svg>
